<svg width="40" height="40" viewBox="0 0 40 40" fill="none" xmlns="http://www.w3.org/2000/svg">
<path d="M25.0551 15.7332C25.2188 15.8279 25.3547 15.964 25.4491 16.1278C25.5436 16.2917 25.5933 16.4774 25.5933 16.6666C25.5933 16.8557 25.5436 17.0414 25.4491 17.2053C25.3547 17.3691 25.2188 17.5052 25.0551 17.5999L18.2801 21.5199C18.1165 21.6145 17.9308 21.6644 17.7418 21.6644C17.5527 21.6644 17.3671 21.6146 17.2034 21.5199C17.0398 21.4252 16.9041 21.2891 16.8098 21.1253C16.7156 20.9614 16.6663 20.7756 16.6668 20.5866V12.7466C16.6664 12.5578 16.7158 12.3722 16.81 12.2086C16.9041 12.045 17.0397 11.909 17.203 11.8144C17.3664 11.7198 17.5518 11.6699 17.7406 11.6697C17.9293 11.6695 18.1148 11.719 18.2784 11.8132L25.0551 15.7332Z" stroke="#12ACF7" stroke-width="2" stroke-linecap="round" stroke-linejoin="round"/>
<path d="M11.6667 35H28.3334" stroke="#12ACF7" stroke-width="2" stroke-linecap="round" stroke-linejoin="round"/>
<path d="M32.0252 6.14526H7.9761C6.31586 6.14526 4.96997 7.49116 4.96997 9.1514V24.1821C4.96997 25.8423 6.31586 27.1882 7.9761 27.1882H32.0252C33.6854 27.1882 35.0313 25.8423 35.0313 24.1821V9.1514C35.0313 7.49116 33.6854 6.14526 32.0252 6.14526Z" stroke="#12ACF7" stroke-width="2" stroke-linecap="round" stroke-linejoin="round"/>
</svg>
