<svg width="32" height="37" viewBox="0 0 32 37" fill="none" xmlns="http://www.w3.org/2000/svg">
<path d="M11.1543 35.8534V25.7269C11.1544 25.3244 11.6021 24.9979 12.1543 24.9979C12.7065 24.9979 13.1542 25.3244 13.1543 25.7269V35.8534C13.1543 36.256 12.7066 36.5824 12.1543 36.5824C11.602 36.5824 11.1543 36.256 11.1543 35.8534ZM15.3857 35.8534V25.5703C15.3857 25.1677 15.8335 24.8414 16.3857 24.8413C16.938 24.8413 17.3857 25.1677 17.3857 25.5703V35.8534C17.3857 36.256 16.938 36.5824 16.3857 36.5824C15.8336 36.5823 15.3858 36.2559 15.3857 35.8534Z" fill="#12ACF7"/>
<path d="M12.387 2.76488C12.8254 1.1814 15.0862 1.10597 15.6292 2.65648L15.678 2.81664L18.6878 14.5871L28.6292 23.4231C30.0105 24.651 28.7242 26.8925 26.9671 26.3196L14.3167 22.1936L2.97096 27.0569C1.27092 27.7853 -0.210021 25.6653 1.05885 24.3196L10.1653 14.6604L12.3489 2.92797L12.387 2.76488ZM12.0979 15.2131C12.0504 15.4684 11.9303 15.7049 11.7522 15.8938L3.48561 24.6594L13.7532 20.26L13.8684 20.217C14.1394 20.129 14.4324 20.1281 14.7053 20.217L26.2444 23.9797L17.2122 15.9514C17.0107 15.7723 16.8669 15.5368 16.8001 15.2756L14.0706 4.6057L12.0979 15.2131Z" fill="#12ACF7"/>
<circle cx="14.459" cy="16.9688" r="1" fill="#12ACF7"/>
<path d="M24.8484 34.9375C25.4006 34.9375 25.8484 35.3852 25.8484 35.9375C25.8484 36.4898 25.4006 36.9375 24.8484 36.9375H3.69019C3.1379 36.9375 2.69019 36.4898 2.69019 35.9375C2.69019 35.3852 3.1379 34.9375 3.69019 34.9375H24.8484Z" fill="#12ACF7"/>
</svg>
