<svg width="40" height="40" viewBox="0 0 40 40" fill="none" xmlns="http://www.w3.org/2000/svg">
<path d="M11.666 33.3333V35.5146" stroke="#12ACF7" stroke-width="2" stroke-linecap="round" stroke-linejoin="round"/>
<path d="M20 33.3333V35.5146" stroke="#12ACF7" stroke-width="2" stroke-linecap="round" stroke-linejoin="round"/>
<path d="M29.166 33.3333V35.5146" stroke="#12ACF7" stroke-width="2" stroke-linecap="round" stroke-linejoin="round"/>
<path d="M11.666 6.66675V4.28247" stroke="#12ACF7" stroke-width="2" stroke-linecap="round" stroke-linejoin="round"/>
<path d="M20 6.66675V4.28247" stroke="#12ACF7" stroke-width="2" stroke-linecap="round" stroke-linejoin="round"/>
<path d="M29.166 6.66675V4.28247" stroke="#12ACF7" stroke-width="2" stroke-linecap="round" stroke-linejoin="round"/>
<path d="M4.33398 11.25L6.66602 11.25" stroke="#12ACF7" stroke-width="2" stroke-linecap="round" stroke-linejoin="round"/>
<path d="M4.33398 19.5833L6.66602 19.5833" stroke="#12ACF7" stroke-width="2" stroke-linecap="round" stroke-linejoin="round"/>
<path d="M4.33398 28.75L6.66602 28.75" stroke="#12ACF7" stroke-width="2" stroke-linecap="round" stroke-linejoin="round"/>
<path d="M36.2207 11.25L33.3327 11.25" stroke="#12ACF7" stroke-width="2" stroke-linecap="round" stroke-linejoin="round"/>
<path d="M36.2207 19.5833L33.3327 19.5833" stroke="#12ACF7" stroke-width="2" stroke-linecap="round" stroke-linejoin="round"/>
<path d="M36.2207 28.75L33.3327 28.75" stroke="#12ACF7" stroke-width="2" stroke-linecap="round" stroke-linejoin="round"/>
<path d="M29.4881 7.34766H10.5093C8.76237 7.34766 7.34619 8.76384 7.34619 10.5108V29.4895C7.34619 31.2365 8.76237 32.6527 10.5093 32.6527H29.4881C31.235 32.6527 32.6512 31.2365 32.6512 29.4895V10.5108C32.6512 8.76384 31.235 7.34766 29.4881 7.34766Z" stroke="#12ACF7" stroke-width="2" stroke-linecap="round" stroke-linejoin="round"/>
</svg>
