<svg width="40" height="40" viewBox="0 0 40 40" fill="none" xmlns="http://www.w3.org/2000/svg">
<path d="M20 23.6665V33.7776C20 34.5438 20.3512 35.2786 20.9763 35.8204C21.6014 36.3621 22.4493 36.6665 23.3333 36.6665C24.2174 36.6665 25.0652 36.3621 25.6904 35.8204C26.3155 35.2786 26.6667 34.5438 26.6667 33.7776" stroke="#12ACF7" stroke-width="2" stroke-linecap="round" stroke-linejoin="round"/>
<path d="M20 5.3335V8.66683" stroke="#12ACF7" stroke-width="2" stroke-linecap="round" stroke-linejoin="round"/>
<path d="M34.9861 23.6667C35.2451 23.6689 35.5011 23.6106 35.7337 23.4966C35.9662 23.3825 36.169 23.2159 36.326 23.0098C36.4829 22.8037 36.5896 22.5638 36.6376 22.3093C36.6857 22.0548 36.6738 21.7925 36.6028 21.5434C35.6575 17.8582 33.5129 14.5922 30.5071 12.2601C27.5012 9.9279 23.8048 8.66211 20.0003 8.66211C16.1958 8.66211 12.4994 9.9279 9.49348 12.2601C6.48759 14.5922 4.34306 17.8582 3.39777 21.5434C3.32714 21.7913 3.31498 22.0522 3.36223 22.3056C3.40948 22.559 3.51486 22.798 3.67008 23.0037C3.8253 23.2095 4.02614 23.3765 4.25681 23.4915C4.48747 23.6066 4.74167 23.6665 4.99944 23.6667H34.9861Z" stroke="#12ACF7" stroke-width="2" stroke-linecap="round" stroke-linejoin="round"/>
</svg>
