<svg width="40" height="40" viewBox="0 0 40 40" fill="none" xmlns="http://www.w3.org/2000/svg">
<rect x="29.8181" y="22.896" width="1.42019" height="1.49976" rx="0.710094" fill="#12ACF7"/>
<path d="M11.6667 11.6667H31.6667C32.5507 11.6667 33.3986 12.0179 34.0237 12.643C34.6488 13.2681 35 14.1159 35 15V31.6667C35 32.5507 34.6488 33.3986 34.0237 34.0237C33.3986 34.6488 32.5507 35 31.6667 35H8.33333C7.44928 35 6.60143 34.6488 5.97631 34.0237C5.35119 33.3986 5 32.5507 5 31.6667V8.33333C5 7.44928 5.35119 6.60143 5.97631 5.97631C6.60143 5.35119 7.44928 5 8.33333 5H31.6667" stroke="#12ACF7" stroke-width="2" stroke-linecap="round" stroke-linejoin="round"/>
<rect x="9.64062" y="10.4431" width="2.56445" height="2.36987" rx="1.18494" fill="white"/>
<rect x="32.0684" y="3.81494" width="2.24414" height="2.36987" rx="1.12207" fill="white"/>
<rect x="35.9727" y="13.4124" width="9.14892" height="1.91602" rx="0.958008" transform="rotate(90 35.9727 13.4124)" fill="#12ACF7"/>
<rect x="5.97461" y="13.4124" width="9.14892" height="1.95898" rx="0.979492" transform="rotate(90 5.97461 13.4124)" fill="#12ACF7"/>
</svg>
