<svg width="40" height="40" viewBox="0 0 40 40" fill="none" xmlns="http://www.w3.org/2000/svg">
<path d="M29.1819 14.6113C28.8505 14.3645 28.4093 14.2267 27.9505 14.2267C27.4916 14.2267 27.0505 14.3645 26.719 14.6113C25.9797 15.1599 24.9972 15.4659 23.9754 15.4659C22.9537 15.4659 21.9712 15.1599 21.2319 14.6113C20.9005 14.3649 20.4597 14.2273 20.0012 14.2273C19.5427 14.2273 19.1019 14.3649 18.7705 14.6113C18.0311 15.1603 17.0483 15.4665 16.0262 15.4665C15.0041 15.4665 14.0212 15.1603 13.2818 14.6113C12.9504 14.3645 12.5092 14.2267 12.0503 14.2267C11.5915 14.2267 11.1503 14.3645 10.8189 14.6113C10.1047 15.1415 9.16253 15.4459 8.17569 15.4654C7.18885 15.485 6.22799 15.2181 5.48011 14.7169C4.73223 14.2157 4.25086 13.516 4.12968 12.7539C4.00851 11.9918 4.25619 11.222 4.82454 10.5941L9.41808 5.41919C9.70954 5.08464 10.1019 4.81074 10.5609 4.62143C11.02 4.43212 11.5316 4.33318 12.0511 4.33325H27.9513C28.4693 4.3331 28.9795 4.43138 29.4375 4.61956C29.8956 4.80774 30.2876 5.08012 30.5795 5.41301L35.1826 10.5978C35.7511 11.2262 35.9985 11.9966 35.8765 12.7591C35.7546 13.5216 35.2721 14.2214 34.523 14.7223C33.774 15.2231 32.812 15.4891 31.8246 15.4684C30.8372 15.4476 29.8951 15.1417 29.1819 14.6101" stroke="#12ACF7" stroke-width="2" stroke-linecap="round" stroke-linejoin="round"/>
<path d="M24 7.41431C24 7.96659 24.4477 8.41431 25 8.41431C25.5523 8.41431 26 7.96659 26 7.41431H25H24ZM14 7.41431C14 7.96659 14.4477 8.41431 15 8.41431C15.5523 8.41431 16 7.96659 16 7.41431H15H14ZM25 4.33643H24V7.41431H25H26V4.33643H25ZM15 4.33643H14V7.41431H15H16V4.33643H15Z" fill="#12ACF7"/>
<path d="M6.66602 17.25V30.6667C6.66602 31.5507 7.0172 32.3986 7.64233 33.0237C8.26745 33.6488 9.11529 34 9.99935 34H29.9993C30.8834 34 31.7312 33.6488 32.3564 33.0237C32.9815 32.3986 33.3327 31.5507 33.3327 30.6667V17.25" stroke="#12ACF7" stroke-width="2" stroke-linecap="round" stroke-linejoin="round"/>
</svg>
