<svg width="40" height="40" viewBox="0 0 40 40" fill="none" xmlns="http://www.w3.org/2000/svg">
<path d="M8.78353 33.1034C8.36004 32.9374 7.97092 32.6849 7.64306 32.357C7.01794 31.7319 6.66675 30.8841 6.66675 30V13.3333C6.66675 12.4493 7.01794 11.6014 7.64306 10.9763C8.26818 10.3512 9.11603 10 10.0001 10H30.0001C30.8841 10 31.732 10.3512 32.3571 10.9763C32.9822 11.6014 33.3334 12.4493 33.3334 13.3333V30C33.3334 30.8841 32.9822 31.7319 32.3571 32.357C32.019 32.6951 31.6158 32.9531 31.1769 33.1187" stroke="#12ACF7" stroke-width="2" stroke-linecap="round" stroke-linejoin="round"/>
<path d="M13.334 9V8.69125C13.334 7.8724 13.6852 7.08708 14.3103 6.50806C14.9354 5.92905 15.7833 5.60376 16.6673 5.60376H23.334C24.218 5.60376 25.0659 5.92905 25.691 6.50806C26.3161 7.08708 26.6673 7.8724 26.6673 8.69125V9" stroke="#12ACF7" stroke-width="2" stroke-linecap="round" stroke-linejoin="round"/>
<path d="M16.6667 33.3333H20.0001H23.3334" stroke="#12ACF7" stroke-width="2" stroke-linecap="round" stroke-linejoin="round"/>
<path d="M27.2914 36.9784C29.3045 36.9784 30.9364 35.3465 30.9364 33.3334C30.9364 31.3204 29.3045 29.6885 27.2914 29.6885C25.2784 29.6885 23.6465 31.3204 23.6465 33.3334C23.6465 35.3465 25.2784 36.9784 27.2914 36.9784Z" stroke="#12ACF7" stroke-width="2" stroke-linecap="round" stroke-linejoin="round"/>
<path d="M12.7094 36.9784C14.7225 36.9784 16.3544 35.3465 16.3544 33.3334C16.3544 31.3204 14.7225 29.6885 12.7094 29.6885C10.6964 29.6885 9.06445 31.3204 9.06445 33.3334C9.06445 35.3465 10.6964 36.9784 12.7094 36.9784Z" stroke="#12ACF7" stroke-width="2" stroke-linecap="round" stroke-linejoin="round"/>
</svg>
