<svg width="200" height="30" viewBox="0 0 200 30" fill="none" xmlns="http://www.w3.org/2000/svg">
<path d="M9.18225 2.15633L14.2773 7.22927C15.6806 8.60862 17.8441 6.47063 16.4486 5.09894L12.0319 0.61988C11.4432 0.0259926 10.4024 0.550909 9.75139 0.784633C9.17056 0.991535 8.59751 1.57393 9.18225 2.15633Z" fill="white"/>
<path d="M26.0843 10.1719C27.4877 11.5513 29.6473 9.4133 28.2518 8.03778L21.4922 1.48204C20.8022 0.811523 19.7848 0.581635 18.8609 0.347911C18.284 0.202313 17.6875 0.0758709 17.095 0.0107349C16.8143 -0.0199173 16.5259 -0.000762939 16.3816 0.28277C16.2803 0.48201 16.3271 0.734889 16.4869 0.891982L26.0805 10.1681L26.0843 10.1719Z" fill="white"/>
<path d="M26.3128 23.9764L5.87041 3.8839C5.28568 3.30917 4.65026 3.79961 4.18637 4.2479C3.70689 4.71151 3.05199 5.37819 3.70299 6.01422L24.1454 26.1068C24.7184 26.67 25.3226 26.2332 25.7709 25.8002C26.2582 25.329 26.9911 24.6393 26.3167 23.9764H26.3128Z" fill="white"/>
<path d="M20.8889 27.8429L15.7939 22.7699C14.3905 21.3906 12.227 23.5286 13.6226 24.9003L18.0393 29.3793C18.6279 29.9732 19.6688 29.4483 20.3198 29.2146C20.9006 29.0077 21.4736 28.4253 20.8889 27.8429Z" fill="white"/>
<path d="M3.98584 19.8285C2.58248 18.4491 0.422849 20.5871 1.81842 21.9626L8.57797 28.5184C9.26796 29.1889 10.2854 29.4188 11.2093 29.6525C11.7862 29.7981 12.3826 29.9246 12.9752 29.9897C13.2559 30.0203 13.5443 30.0012 13.6886 29.7177C13.7899 29.5184 13.7431 29.2655 13.5833 29.1084L3.98974 19.8323L3.98584 19.8285Z" fill="white"/>
<path d="M45.0547 14.004C43.203 13.5672 41.6086 13.1918 41.6086 11.7932C41.6086 10.2568 43.3628 9.70889 45.0079 9.70889C46.0955 9.70889 47.1597 9.88515 48.1655 10.2262C48.3214 10.2875 48.4422 10.3143 48.5436 10.3143C49.1322 10.3143 49.4987 9.80851 49.4987 9.33724C49.4987 8.86596 49.2648 8.5556 48.836 8.41C47.6392 7.97321 46.2826 7.75098 44.8091 7.75098C41.1291 7.75098 39.4841 9.84683 39.4841 11.9274C39.4841 14.7665 42.2245 15.4562 44.6415 16.0654C46.4268 16.5137 47.9667 16.9007 47.9667 18.0501C47.9667 19.464 46.8751 20.1536 44.6298 20.1536C43.2654 20.1536 41.9634 19.8854 40.7588 19.3605C40.6107 19.2992 40.4703 19.2686 40.3183 19.2686C39.7102 19.2686 39.3438 19.7628 39.3438 20.2456C39.3438 20.6441 39.6205 21.0426 39.9987 21.1882C41.4956 21.8204 43.1133 22.1422 44.813 22.1422C47.9121 22.1422 50.0795 20.5061 50.0795 18.1612C50.0795 15.1765 47.4131 14.5481 45.0625 13.9964L45.0547 14.004Z" fill="white"/>
<path d="M65.2788 7.85059C64.698 7.85059 64.2224 8.3257 64.2224 8.90809V16.7168C64.2224 19.1191 62.2733 20.2111 60.4645 20.2111C58.6557 20.2111 56.7066 19.1153 56.7066 16.7168V8.90809C56.7066 8.33336 56.2154 7.85059 55.6307 7.85059C55.0459 7.85059 54.5781 8.3257 54.5781 8.90809V16.6593C54.5781 20.2647 57.5369 22.1499 60.4645 22.1499C63.392 22.1499 66.3508 20.2647 66.3508 16.6593V8.90809C66.3508 8.33336 65.8596 7.85059 65.2749 7.85059H65.2788Z" fill="white"/>
<path d="M81.4189 7.9502H71.4784C70.921 7.9502 70.4844 8.38699 70.4844 8.9464C70.4844 9.5058 70.9132 9.92343 71.4784 9.92343H75.3962V21.0157C75.3962 21.5866 75.8678 22.0541 76.4526 22.0541C77.0373 22.0541 77.5246 21.5904 77.5246 21.0157V9.92343H81.4228C81.992 9.92343 82.4364 9.4943 82.4364 8.9464C82.4364 8.39849 81.992 7.9502 81.4228 7.9502H81.4189Z" fill="white"/>
<path d="M97.0371 7.85059C96.4563 7.85059 95.9846 8.3257 95.9846 8.90809V13.9734H88.73V8.90809C88.73 8.33336 88.2388 7.85059 87.6541 7.85059C87.0693 7.85059 86.6016 8.3257 86.6016 8.90809V21.0157C86.6016 21.5866 87.0732 22.0541 87.6541 22.0541C88.2349 22.0541 88.73 21.5905 88.73 21.0157V15.9504H95.9846V21.0157C95.9846 21.5866 96.4563 22.0541 97.0371 22.0541C97.618 22.0541 98.1131 21.5905 98.1131 21.0157V8.90809C98.1131 8.33336 97.6219 7.85059 97.0371 7.85059Z" fill="white"/>
<path d="M113.005 9.92343C113.574 9.92343 114.018 9.4943 114.018 8.9464C114.018 8.39849 113.574 7.9502 113.005 7.9502H104.998C104.417 7.9502 103.945 8.4253 103.945 9.00387V20.9161C103.945 21.487 104.417 21.9544 104.998 21.9544H113.005C113.574 21.9544 114.018 21.5253 114.018 20.9774C114.018 20.4295 113.574 19.9812 113.005 19.9812H106.074V15.9313H112.288C112.857 15.9313 113.301 15.5021 113.301 14.9542C113.301 14.4063 112.857 13.958 112.288 13.958H106.074V9.92727H113.005V9.92343Z" fill="white"/>
<path d="M130.008 12.0882C130.008 9.45981 127.973 7.9502 124.422 7.9502H119.771C119.19 7.9502 118.719 8.4253 118.719 9.00387V21.0157C118.719 21.5866 119.19 22.0541 119.771 22.0541C120.352 22.0541 120.843 21.5904 120.843 21.0157V16.6171H124.819C127.424 16.6171 127.759 18.6555 127.759 20.4295V21.0195C127.759 21.6402 128.191 22.0579 128.835 22.0579C129.416 22.0579 129.887 21.5943 129.887 21.0195V20.1153C129.887 19.2417 129.72 16.4754 127.689 15.6286C129.131 14.9887 130.008 13.663 130.008 12.0882ZM127.88 12.2223C127.88 13.7243 126.543 14.6209 124.301 14.6209H120.843V9.94258H124.2C127.459 9.94258 127.876 11.161 127.876 12.2223H127.88Z" fill="white"/>
<path d="M143.815 19.8624H137.441V8.90809C137.441 8.33336 136.95 7.85059 136.365 7.85059C135.78 7.85059 135.312 8.3257 135.312 8.90809V20.5636C135.312 21.3299 135.948 21.9544 136.728 21.9544H143.815C144.407 21.9544 144.887 21.4908 144.887 20.9161C144.887 20.3414 144.395 19.8624 143.815 19.8624Z" fill="white"/>
<path d="M156.413 8.75107C156.168 8.18783 155.68 7.85449 155.111 7.85449H154.912C154.343 7.85449 153.856 8.19167 153.61 8.75107L148.519 20.5637C148.445 20.7361 148.406 20.8855 148.406 21.0158C148.406 21.6173 148.851 22.0541 149.459 22.0541C149.903 22.0541 150.277 21.8128 150.461 21.4104L151.716 18.441H158.296L159.555 21.4104C159.735 21.8128 160.113 22.0503 160.557 22.0503C161.169 22.0503 161.61 21.6135 161.61 21.012C161.61 20.8817 161.571 20.7284 161.497 20.5598L156.405 8.74723L156.413 8.75107ZM157.474 16.5061H152.55L155.01 10.6822L157.474 16.5061Z" fill="white"/>
<path d="M177.281 7.85059C176.7 7.85059 176.225 8.3257 176.225 8.90809V19.0157L168.818 8.50195C168.487 8.08431 168.054 7.85442 167.598 7.85442H167.337C166.538 7.85442 165.883 8.50578 165.883 9.30274V21.0196C165.883 21.5904 166.355 22.0579 166.935 22.0579C167.516 22.0579 168.011 21.5943 168.011 21.0196V10.8928L175.457 21.464C175.745 21.8395 176.174 22.0541 176.642 22.0541H176.884C177.694 22.0541 178.357 21.4142 178.357 20.6249V8.90809C178.357 8.33336 177.866 7.85059 177.285 7.85059H177.281Z" fill="white"/>
<path d="M194.689 10.184C193.376 8.72416 191.501 7.9502 189.259 7.9502H185.248C184.667 7.9502 184.195 8.4253 184.195 9.00387V20.9161C184.195 21.487 184.667 21.9544 185.248 21.9544H189.259C191.497 21.9544 193.376 21.1805 194.689 19.713C195.816 18.4562 196.463 16.7206 196.463 14.9504C196.463 13.1802 195.816 11.4369 194.689 10.1801V10.184ZM194.354 14.9504C194.354 17.9581 192.218 19.9774 189.041 19.9774H186.324V9.92343H189.041C192.222 9.92343 194.354 11.9426 194.354 14.9504Z" fill="white"/>
<path d="M19.2223 8.55541C18.6141 8.50177 18.0801 8.5056 17.3979 8.55541C17.0899 8.5784 16.8171 8.72017 16.7001 8.99987C16.5793 9.2834 16.6455 9.60526 16.8716 9.81982L28.1609 20.5673C28.3208 20.7167 28.4377 20.7703 28.7535 20.7703C29.1277 20.7703 29.307 20.5328 29.3967 20.2952C29.6033 19.755 29.7787 19.1956 29.919 18.6362C30.0009 18.3067 29.9112 17.9542 29.6851 17.6936C29.6618 17.6668 29.6345 17.64 29.6072 17.6131L20.5048 9.11864C20.1617 8.78147 19.6979 8.59756 19.2223 8.55541Z" fill="white" fill-opacity="0.5"/>
<path d="M10.7266 21.4376C11.3347 21.4912 11.8687 21.4874 12.5509 21.4376C12.8589 21.4184 13.1318 21.2728 13.2487 20.9893C13.3696 20.7057 13.3033 20.3839 13.0772 20.1693L1.7879 9.42189C1.62807 9.27246 1.51113 9.22266 1.19537 9.22266C0.821143 9.22266 0.641821 9.46021 0.552161 9.69776C0.345555 10.238 0.170136 10.7974 0.0297989 11.3568C-0.0520641 11.6863 0.0375918 12.0388 0.26369 12.2994C0.287079 12.3262 0.314372 12.3568 0.341659 12.3798L9.44404 20.8743C9.78709 21.2115 10.251 21.3954 10.7266 21.4376Z" fill="white" fill-opacity="0.5"/>
<path d="M197.625 10.59V8.74316H198.381C198.557 8.74316 198.697 8.79297 198.806 8.89642C198.915 8.99604 198.97 9.13398 198.97 9.30256C198.97 9.38303 198.958 9.45582 198.931 9.52479C198.904 9.58992 198.869 9.6474 198.822 9.69338C198.775 9.73552 198.724 9.77385 198.666 9.79683C198.607 9.82366 198.545 9.83898 198.483 9.84281L198.989 10.59H198.713L198.237 9.86196H197.859V10.59H197.625ZM197.859 9.65506H198.35C198.463 9.65506 198.553 9.62058 198.623 9.55545C198.693 9.49031 198.728 9.40601 198.728 9.29873C198.728 9.19145 198.693 9.11098 198.623 9.04585C198.553 8.98071 198.463 8.95006 198.35 8.95006H197.859V9.65506Z" fill="white"/>
<path d="M198.235 11.4216C197.26 11.4216 196.469 10.6438 196.469 9.68588C196.469 8.728 197.26 7.9502 198.235 7.9502C199.209 7.9502 200.001 8.728 200.001 9.68588C200.001 10.6438 199.209 11.4216 198.235 11.4216ZM198.235 8.18009C197.389 8.18009 196.703 8.85444 196.703 9.68588C196.703 10.5173 197.389 11.1917 198.235 11.1917C199.081 11.1917 199.767 10.5173 199.767 9.68588C199.767 8.85444 199.081 8.18009 198.235 8.18009Z" fill="white"/>
</svg>
